<svg data-v-fde0c5aa="" xmlns="http://www.w3.org/2000/svg" viewBox="0 0 300 300" class="iconLeftSlogan"><!----><defs data-v-fde0c5aa=""><!----></defs><rect data-v-fde0c5aa="" fill="#FFFFFF" x="0" y="0" width="300px" height="300px" class="logo-background-square"></rect><defs data-v-fde0c5aa=""><!----></defs><g data-v-fde0c5aa="" id="d4990d5c-3f48-41ec-900b-a6655cd96873" fill="#08374E" transform="matrix(2.3055109376222997,0,0,2.3055109376222997,96.3778803084154,117.40599347091343)"><path d="M0.56 10.68L0.56 4.02L0.56 4.02Q0.56 3.70 0.58 3.54L0.58 3.54L0.58 3.54Q0.60 3.37 0.70 3.16L0.70 3.16L0.70 3.16Q0.90 2.79 1.79 2.79L1.79 2.79L1.79 2.79Q2.65 2.79 2.86 3.16L2.86 3.16L2.86 3.16Q2.97 3.37 2.99 3.54L2.99 3.54L2.99 3.54Q3.01 3.71 3.01 4.03L3.01 4.03L3.01 10.51L3.01 10.51Q3.01 11.02 3.09 11.15L3.09 11.15L3.09 11.15Q3.18 11.28 3.46 11.28L3.46 11.28L3.46 11.28Q3.75 11.28 3.85 11.31L3.85 11.31L3.85 11.31Q3.95 11.33 4.09 11.42L4.09 11.42L4.09 11.42Q4.37 11.61 4.37 12.42L4.37 12.42L4.37 12.42Q4.37 13.30 4.09 13.50L4.09 13.50L4.09 13.50Q3.72 13.75 2.35 13.58L2.35 13.58L2.35 13.58Q1.27 13.44 0.95 12.87L0.95 12.87L0.95 12.87Q0.56 12.18 0.56 10.68L0.56 10.68ZM5.14 12.40L5.14 7.49L5.14 7.49Q5.14 7.17 5.16 7.01L5.16 7.01L5.16 7.01Q5.18 6.85 5.28 6.64L5.28 6.64L5.28 6.64Q5.47 6.27 6.37 6.27L6.37 6.27L6.37 6.27Q7.04 6.27 7.32 6.51L7.32 6.51L7.32 6.51Q7.56 6.71 7.57 7.11L7.57 7.11L7.57 7.11Q7.59 7.25 7.59 7.52L7.59 7.52L7.59 12.42L7.59 12.42Q7.59 12.74 7.57 12.90L7.57 12.90L7.57 12.90Q7.55 13.06 7.43 13.27L7.43 13.27L7.43 13.27Q7.25 13.64 6.36 13.64L6.36 13.64L6.36 13.64Q5.47 13.64 5.28 13.26L5.28 13.26L5.28 13.26Q5.18 13.05 5.16 12.89L5.16 12.89L5.16 12.89Q5.14 12.74 5.14 12.40L5.14 12.40ZM7.44 4.89L7.44 4.89L7.44 4.89Q7.34 5.10 7.07 5.18L7.07 5.18L7.07 5.18Q6.80 5.26 6.36 5.26L6.36 5.26L6.36 5.26Q5.92 5.26 5.66 5.18L5.66 5.18L5.66 5.18Q5.39 5.10 5.29 4.89L5.29 4.89L5.29 4.89Q5.18 4.68 5.16 4.52L5.16 4.52L5.16 4.52Q5.14 4.35 5.14 4.03L5.14 4.03L5.14 4.03Q5.14 3.71 5.16 3.55L5.16 3.55L5.16 3.55Q5.18 3.39 5.28 3.19L5.28 3.19L5.28 3.19Q5.47 2.81 6.37 2.81L6.37 2.81L6.37 2.81Q7.25 2.81 7.43 3.19L7.43 3.19L7.43 3.19Q7.55 3.40 7.57 3.56L7.57 3.56L7.57 3.56Q7.59 3.72 7.59 4.05L7.59 4.05L7.59 4.05Q7.59 4.37 7.57 4.53L7.57 4.53L7.57 4.53Q7.55 4.69 7.44 4.89ZM13.38 13.13L13.38 12.71L13.38 12.71Q12.85 13.41 11.69 13.41L11.69 13.41L11.69 13.41Q10.53 13.41 9.51 12.34L9.51 12.34L9.51 12.34Q8.50 11.27 8.50 9.84L8.50 9.84L8.50 9.84Q8.50 8.41 9.52 7.34L9.52 7.34L9.52 7.34Q10.54 6.26 11.76 6.26L11.76 6.26L11.76 6.26Q12.24 6.26 12.63 6.43L12.63 6.43L12.63 6.43Q13.02 6.61 13.17 6.76L13.17 6.76L13.17 6.76Q13.31 6.90 13.40 7.03L13.40 7.03L13.40 7.03Q13.44 6.64 13.68 6.43L13.68 6.43L13.68 6.43Q13.93 6.23 14.48 6.23L14.48 6.23L14.48 6.23Q15.02 6.23 15.27 6.31L15.27 6.31L15.27 6.31Q15.53 6.40 15.63 6.60L15.63 6.60L15.63 6.60Q15.74 6.80 15.76 6.96L15.76 6.96L15.76 6.96Q15.78 7.11 15.78 7.43L15.78 7.43L15.78 13.23L15.78 13.23Q15.78 14.84 14.66 15.83L14.66 15.83L14.66 15.83Q13.54 16.81 12.14 16.81L12.14 16.81L12.14 16.81Q11.07 16.81 10.11 16.30L10.11 16.30L10.11 16.30Q9.14 15.78 9.14 15.36L9.14 15.36L9.14 15.36Q9.14 14.81 9.56 14.39L9.56 14.39L9.56 14.39Q9.83 14.10 9.97 13.99L9.97 13.99L9.97 13.99Q10.12 13.87 10.32 13.87L10.32 13.87L10.32 13.87Q10.51 13.87 10.72 14.04L10.72 14.04L10.72 14.04Q11.40 14.56 12.18 14.56L12.18 14.56L12.18 14.56Q12.71 14.56 13.05 14.14L13.05 14.14L13.05 14.14Q13.38 13.72 13.38 13.13L13.38 13.13ZM10.89 9.85L10.89 9.85L10.89 9.85Q10.89 10.30 11.25 10.67L11.25 10.67L11.25 10.67Q11.61 11.03 12.12 11.03L12.12 11.03L12.12 11.03Q12.63 11.03 12.96 10.66L12.96 10.66L12.96 10.66Q13.30 10.29 13.30 9.85L13.30 9.85L13.30 9.85Q13.30 9.41 12.98 9.02L12.98 9.02L12.98 9.02Q12.66 8.64 12.11 8.64L12.11 8.64L12.11 8.64Q11.56 8.64 11.23 9.02L11.23 9.02L11.23 9.02Q10.89 9.39 10.89 9.85ZM20.99 6.29L20.99 6.29L20.99 6.29Q22.39 6.29 23.32 7.35L23.32 7.35L23.32 7.35Q24.25 8.41 24.25 9.95L24.25 9.95L24.25 12.42L24.25 12.42Q24.25 12.74 24.23 12.90L24.23 12.90L24.23 12.90Q24.21 13.06 24.09 13.27L24.09 13.27L24.09 13.27Q23.91 13.64 23.02 13.64L23.02 13.64L23.02 13.64Q22.16 13.64 21.95 13.27L21.95 13.27L21.95 13.27Q21.84 13.06 21.82 12.89L21.82 12.89L21.82 12.89Q21.80 12.73 21.80 12.39L21.80 12.39L21.80 9.94L21.80 9.94Q21.80 9.37 21.48 9.04L21.48 9.04L21.48 9.04Q21.15 8.72 20.66 8.72L20.66 8.72L20.66 8.72Q20.16 8.72 19.78 9.02L19.78 9.02L19.78 9.02Q19.40 9.32 19.35 9.70L19.35 9.70L19.35 12.42L19.35 12.42Q19.35 12.74 19.33 12.90L19.33 12.90L19.33 12.90Q19.31 13.06 19.19 13.27L19.19 13.27L19.19 13.27Q19.01 13.64 18.12 13.64L18.12 13.64L18.12 13.64Q17.23 13.64 17.04 13.26L17.04 13.26L17.04 13.26Q16.94 13.05 16.92 12.89L16.92 12.89L16.92 12.89Q16.90 12.74 16.90 12.40L16.90 12.40L16.90 4.03L16.90 4.03Q16.90 3.71 16.92 3.55L16.92 3.55L16.92 3.55Q16.94 3.39 17.04 3.19L17.04 3.19L17.04 3.19Q17.23 2.81 18.13 2.81L18.13 2.81L18.13 2.81Q19.01 2.81 19.19 3.19L19.19 3.19L19.19 3.19Q19.31 3.40 19.33 3.56L19.33 3.56L19.33 3.56Q19.35 3.72 19.35 4.05L19.35 4.05L19.35 7.14L19.35 7.14Q20.05 6.29 20.99 6.29ZM29.65 8.74L29.65 8.74L28.74 8.68L28.74 10.61L28.74 10.61Q28.74 10.99 28.86 11.16L28.86 11.16L28.86 11.16Q28.98 11.33 29.31 11.33L29.31 11.33L29.31 11.33Q29.64 11.33 29.81 11.35L29.81 11.35L29.81 11.35Q29.99 11.37 30.18 11.48L30.18 11.48L30.18 11.48Q30.51 11.66 30.51 12.42L30.51 12.42L30.51 12.42Q30.51 13.30 30.11 13.50L30.11 13.50L30.11 13.50Q29.90 13.59 29.74 13.62L29.74 13.62L29.74 13.62Q29.58 13.64 29.27 13.64L29.27 13.64L29.27 13.64Q27.82 13.64 27.06 12.98L27.06 12.98L27.06 12.98Q26.31 12.32 26.31 10.75L26.31 10.75L26.31 8.68L26.31 8.68Q26.04 8.72 25.73 8.72L25.73 8.72L25.73 8.72Q25.42 8.72 25.22 8.48L25.22 8.48L25.22 8.48Q25.02 8.25 25.02 7.67L25.02 7.67L25.02 7.67Q25.02 7.10 25.09 6.84L25.09 6.84L25.09 6.84Q25.16 6.58 25.28 6.47L25.28 6.47L25.28 6.47Q25.51 6.29 25.84 6.29L25.84 6.29L26.31 6.34L26.31 4.90L26.31 4.90Q26.31 4.58 26.33 4.42L26.33 4.42L26.33 4.42Q26.35 4.27 26.46 4.09L26.46 4.09L26.46 4.09Q26.64 3.74 27.54 3.74L27.54 3.74L27.54 3.74Q28.49 3.74 28.67 4.26L28.67 4.26L28.67 4.26Q28.74 4.48 28.74 4.97L28.74 4.97L28.74 6.34L28.74 6.34Q29.36 6.29 29.67 6.29L29.67 6.29L29.67 6.29Q29.99 6.29 30.15 6.31L30.15 6.31L30.15 6.31Q30.31 6.33 30.52 6.44L30.52 6.44L30.52 6.44Q30.88 6.62 30.88 7.52L30.88 7.52L30.88 7.52Q30.88 8.40 30.51 8.60L30.51 8.60L30.51 8.60Q30.30 8.69 30.13 8.71L30.13 8.71L30.13 8.71Q29.97 8.74 29.65 8.74ZM35.74 6.29L35.74 6.29L35.74 6.29Q37.14 6.29 38.07 7.35L38.07 7.35L38.07 7.35Q39.00 8.41 39.00 9.95L39.00 9.95L39.00 12.42L39.00 12.42Q39.00 12.74 38.98 12.90L38.98 12.90L38.98 12.90Q38.96 13.06 38.85 13.27L38.85 13.27L38.85 13.27Q38.67 13.64 37.77 13.64L37.77 13.64L37.77 13.64Q36.92 13.64 36.71 13.27L36.71 13.27L36.71 13.27Q36.60 13.06 36.58 12.89L36.58 12.89L36.58 12.89Q36.55 12.73 36.55 12.39L36.55 12.39L36.55 9.94L36.55 9.94Q36.55 9.37 36.23 9.04L36.23 9.04L36.23 9.04Q35.91 8.72 35.41 8.72L35.41 8.72L35.41 8.72Q34.92 8.72 34.54 9.02L34.54 9.02L34.54 9.02Q34.16 9.32 34.10 9.70L34.10 9.70L34.10 12.42L34.10 12.42Q34.10 12.74 34.08 12.90L34.08 12.90L34.08 12.90Q34.06 13.06 33.95 13.27L33.95 13.27L33.95 13.27Q33.77 13.64 32.87 13.64L32.87 13.64L32.87 13.64Q31.99 13.64 31.79 13.26L31.79 13.26L31.79 13.26Q31.70 13.05 31.68 12.89L31.68 12.89L31.68 12.89Q31.65 12.74 31.65 12.40L31.65 12.40L31.65 4.03L31.65 4.03Q31.65 3.71 31.68 3.55L31.68 3.55L31.68 3.55Q31.70 3.39 31.79 3.19L31.79 3.19L31.79 3.19Q31.99 2.81 32.89 2.81L32.89 2.81L32.89 2.81Q33.77 2.81 33.95 3.19L33.95 3.19L33.95 3.19Q34.06 3.40 34.08 3.56L34.08 3.56L34.08 3.56Q34.10 3.72 34.10 4.05L34.10 4.05L34.10 7.14L34.10 7.14Q34.80 6.29 35.74 6.29ZM39.91 9.95L39.91 9.95Q39.91 8.27 41.09 7.18L41.09 7.18L41.09 7.18Q42.27 6.09 43.78 6.09L43.78 6.09L43.78 6.09Q45.29 6.09 46.45 7.18L46.45 7.18L46.45 7.18Q47.61 8.26 47.61 9.94L47.61 9.94L47.61 9.94Q47.61 11.10 47.01 12.01L47.01 12.01L47.01 12.01Q46.41 12.91 45.55 13.34L45.55 13.34L45.55 13.34Q44.69 13.76 43.76 13.76L43.76 13.76L43.76 13.76Q42.84 13.76 41.97 13.31L41.97 13.31L41.97 13.31Q41.10 12.85 40.51 11.96L40.51 11.96L40.51 11.96Q39.91 11.07 39.91 9.95L39.91 9.95ZM42.84 10.96L42.84 10.96L42.84 10.96Q43.29 11.30 43.75 11.30L43.75 11.30L43.75 11.30Q44.21 11.30 44.67 10.95L44.67 10.95L44.67 10.95Q45.14 10.60 45.14 9.91L45.14 9.91L45.14 9.91Q45.14 9.23 44.70 8.89L44.70 8.89L44.70 8.89Q44.27 8.55 43.76 8.55L43.76 8.55L43.76 8.55Q43.26 8.55 42.83 8.90L42.83 8.90L42.83 8.90Q42.39 9.25 42.39 9.93L42.39 9.93L42.39 9.93Q42.39 10.61 42.84 10.96ZM51.80 13.61L51.80 13.61L51.80 13.61Q50.39 13.61 49.45 12.54L49.45 12.54L49.45 12.54Q48.52 11.47 48.52 9.93L48.52 9.93L48.52 7.48L48.52 7.48Q48.52 7.14 48.55 6.99L48.55 6.99L48.55 6.99Q48.57 6.83 48.66 6.62L48.66 6.62L48.66 6.62Q48.86 6.24 49.76 6.24L49.76 6.24L49.76 6.24Q50.74 6.24 50.90 6.78L50.90 6.78L50.90 6.78Q50.99 7.00 50.99 7.49L50.99 7.49L50.99 9.94L50.99 9.94Q50.99 10.51 51.32 10.84L51.32 10.84L51.32 10.84Q51.65 11.16 52.20 11.16L52.20 11.16L52.20 11.16Q52.75 11.16 53.09 10.82L53.09 10.82L53.09 10.82Q53.44 10.49 53.44 9.94L53.44 9.94L53.44 7.46L53.44 7.46Q53.44 7.14 53.46 6.98L53.46 6.98L53.46 6.98Q53.48 6.82 53.59 6.61L53.59 6.61L53.59 6.61Q53.77 6.24 54.67 6.24L54.67 6.24L54.67 6.24Q55.55 6.24 55.75 6.62L55.75 6.62L55.75 6.62Q55.85 6.83 55.87 6.99L55.87 6.99L55.87 6.99Q55.89 7.15 55.89 7.48L55.89 7.48L55.89 12.43L55.89 12.43Q55.89 12.74 55.87 12.90L55.87 12.90L55.87 12.90Q55.85 13.06 55.73 13.26L55.73 13.26L55.73 13.26Q55.52 13.62 54.66 13.62L54.66 13.62L54.66 13.62Q53.80 13.62 53.61 13.29L53.61 13.29L53.61 13.29Q53.47 13.05 53.47 12.71L53.47 12.71L53.47 12.71Q53.41 12.81 53.21 12.99L53.21 12.99L53.21 12.99Q53.02 13.17 52.84 13.30L52.84 13.30L52.84 13.30Q52.36 13.61 51.80 13.61ZM57.06 12.98L57.06 12.98L57.06 12.98Q56.80 12.81 56.80 12.45L56.80 12.45L56.80 12.45Q56.80 12.08 57.33 11.34L57.33 11.34L57.33 11.34Q57.48 11.10 57.83 11.10L57.83 11.10L57.83 11.10Q58.17 11.10 58.76 11.45L58.76 11.45L58.76 11.45Q59.35 11.79 59.82 11.79L59.82 11.79L59.82 11.79Q60.68 11.79 60.68 11.45L60.68 11.45L60.68 11.45Q60.68 11.19 59.74 11.06L59.74 11.06L59.74 11.06Q58.86 10.93 57.99 10.40L57.99 10.40L57.99 10.40Q57.58 10.15 57.32 9.61L57.32 9.61L57.32 9.61Q57.05 9.07 57.05 8.33L57.05 8.33L57.05 8.33Q57.05 6.12 60.09 6.12L60.09 6.12L60.09 6.12Q61.08 6.12 62.13 6.59L62.13 6.59L62.13 6.59Q62.62 6.82 62.62 7.15L62.62 7.15L62.62 7.15Q62.62 7.49 62.31 7.98L62.31 7.98L62.31 7.98Q62.01 8.47 61.68 8.47L61.68 8.47L61.68 8.47Q61.52 8.47 61.06 8.26L61.06 8.26L61.06 8.26Q60.61 8.05 60.07 8.05L60.07 8.05L60.07 8.05Q59.25 8.05 59.25 8.36L59.25 8.36L59.25 8.36Q59.25 8.78 60.20 8.90L60.20 8.90L60.20 8.90Q61.12 9.00 61.99 9.44L61.99 9.44L61.99 9.44Q62.40 9.63 62.67 10.12L62.67 10.12L62.67 10.12Q62.94 10.60 62.94 11.33L62.94 11.33L62.94 11.33Q62.94 12.05 62.67 12.57L62.67 12.57L62.67 12.57Q62.40 13.08 61.91 13.33L61.91 13.33L61.91 13.33Q61.01 13.76 59.66 13.76L59.66 13.76L59.66 13.76Q58.31 13.76 57.06 12.98ZM70.97 9.07L70.97 9.07L70.97 9.07Q70.97 9.93 70.54 10.34L70.54 10.34L70.54 10.34Q70.11 10.75 69.59 10.75L69.59 10.75L66.28 10.75L66.28 10.75Q66.28 11.14 66.74 11.41L66.74 11.41L66.74 11.41Q67.20 11.68 67.66 11.68L67.66 11.68L67.66 11.68Q68.47 11.68 68.94 11.51L68.94 11.51L69.09 11.45L69.09 11.45Q69.43 11.30 69.65 11.30L69.65 11.30L69.65 11.30Q70.10 11.30 70.42 11.93L70.42 11.93L70.42 11.93Q70.60 12.31 70.60 12.57L70.60 12.57L70.60 12.57Q70.60 13.82 67.62 13.82L67.62 13.82L67.62 13.82Q66.58 13.82 65.78 13.46L65.78 13.46L65.78 13.46Q64.97 13.10 64.53 12.52L64.53 12.52L64.53 12.52Q63.64 11.38 63.64 9.98L63.64 9.98L63.64 9.98Q63.64 8.22 64.78 7.16L64.78 7.16L64.78 7.16Q65.93 6.10 67.63 6.10L67.63 6.10L67.63 6.10Q69.58 6.10 70.49 7.48L70.49 7.48L70.49 7.48Q70.97 8.20 70.97 9.07ZM66.25 9.48L68.01 9.48L68.01 9.48Q68.54 9.48 68.54 9.03L68.54 9.03L68.54 9.03Q68.54 8.71 68.30 8.51L68.30 8.51L68.30 8.51Q68.05 8.32 67.60 8.32L67.60 8.32L67.60 8.32Q67.14 8.32 66.70 8.69L66.70 8.69L66.70 8.69Q66.25 9.06 66.25 9.48L66.25 9.48Z"></path></g><defs data-v-fde0c5aa=""><linearGradient data-v-fde0c5aa="" gradientTransform="rotate(25)" id="706d4dd4-b707-42e0-a29c-405abd7e7307" x1="0%" y1="0%" x2="100%" y2="0%"><stop data-v-fde0c5aa="" offset="0%" stop-color="#3B74DB" stop-opacity="1"></stop><stop data-v-fde0c5aa="" offset="100%" stop-color="#83D5E4" stop-opacity="1"></stop></linearGradient></defs><g data-v-fde0c5aa="" id="e3acfad8-22d8-48e4-9391-8eee97b71d01" stroke="none" fill="url(#706d4dd4-b707-42e0-a29c-405abd7e7307)" transform="matrix(0.7503202262641675,0,0,0.7503202262641675,24.83107150663906,112.48398868679163)"><path d="M58.5 80a8.5 8.5 0 0 1-17 0v-7.5a1 1 0 0 1 1-.999h25a4 4 0 0 0 4-4.001V50c0-11.874-9.626-21.5-21.5-21.5-11.875 0-21.5 9.626-21.5 21.5v10a1.5 1.5 0 1 0 3 0V50c0-10.217 8.283-18.5 18.5-18.5S68.5 39.783 68.5 50v17.5a1 1 0 0 1-1 1h-25a4 4 0 0 0-4 4V80c0 6.352 5.148 11.5 11.5 11.5S61.5 86.352 61.5 80a1.5 1.5 0 0 0-3 0zM27.726 29.848a1.5 1.5 0 1 0 2.122-2.122l-7.071-7.071a1.5 1.5 0 0 0-2.122 2.121l7.071 7.072zM48.5 20a1.5 1.5 0 1 0 3 0V10a1.5 1.5 0 1 0-3 0v10zM79.346 22.776a1.501 1.501 0 0 0-2.122-2.121l-7.071 7.071a1.5 1.5 0 1 0 2.122 2.122l7.071-7.072z"></path></g><defs data-v-fde0c5aa=""><!----></defs><g data-v-fde0c5aa="" id="a65e9ebe-8b1f-480a-9786-1e5d69530554" fill="#08374E" transform="matrix(0.6762947730974231,0,0,0.6762947730974231,96.84388679645284,162.32027690596894)"><path d="M1.22 15.68L1.22 5.88L2.39 5.88L2.39 14.59L7.52 14.59L7.52 15.68L1.22 15.68ZM16.74 6.97L16.74 5.88L22.96 5.88L22.96 6.97L20.44 6.97L20.44 14.59L22.96 14.59L22.96 15.68L16.74 15.68L16.74 14.59L19.26 14.59L19.26 6.97L16.74 6.97ZM34.48 12.07L34.48 10.98L38.85 10.98L38.85 15.68L37.76 15.68L37.76 14.50L37.59 14.50L37.59 14.50Q37.35 15.12 36.75 15.50L36.75 15.50L36.75 15.50Q36.15 15.88 35.35 15.88L35.35 15.88L35.35 15.88Q33.77 15.88 32.87 14.85L32.87 14.85L32.87 14.85Q31.96 13.83 31.96 11.87L31.96 11.87L31.96 9.69L31.96 9.69Q31.96 7.78 32.87 6.73L32.87 6.73L32.87 6.73Q33.78 5.68 35.41 5.68L35.41 5.68L35.41 5.68Q36.25 5.68 36.89 5.96L36.89 5.96L36.89 5.96Q37.53 6.23 37.97 6.71L37.97 6.71L37.97 6.71Q38.40 7.20 38.63 7.85L38.63 7.85L38.63 7.85Q38.85 8.50 38.85 9.24L38.85 9.24L38.85 9.41L37.67 9.41L37.67 9.24L37.67 9.24Q37.67 8.76 37.54 8.32L37.54 8.32L37.54 8.32Q37.41 7.87 37.13 7.53L37.13 7.53L37.13 7.53Q36.86 7.18 36.44 6.98L36.44 6.98L36.44 6.98Q36.01 6.78 35.41 6.78L35.41 6.78L35.41 6.78Q34.27 6.78 33.70 7.60L33.70 7.60L33.70 7.60Q33.14 8.43 33.14 9.77L33.14 9.77L33.14 11.79L33.14 11.79Q33.14 13.23 33.70 14.01L33.70 14.01L33.70 14.01Q34.27 14.78 35.43 14.78L35.43 14.78L35.43 14.78Q36.48 14.78 37.08 14.11L37.08 14.11L37.08 14.11Q37.67 13.44 37.67 12.24L37.67 12.24L37.67 12.07L34.48 12.07ZM47.73 15.68L47.73 5.88L48.90 5.88L48.90 10.22L53.07 10.22L53.07 5.88L54.25 5.88L54.25 15.68L53.07 15.68L53.07 11.31L48.90 11.31L48.90 15.68L47.73 15.68ZM63.11 6.97L63.11 5.88L70 5.88L70 6.97L67.14 6.97L67.14 15.68L65.97 15.68L65.97 6.97L63.11 6.97ZM97.10 15.68L97.10 12.24L96.85 12.24L93.79 5.88L95.10 5.88L97.61 11.23L97.78 11.23L100.28 5.88L101.60 5.88L98.53 12.24L98.28 12.24L98.28 15.68L97.10 15.68ZM109.82 11.87L109.82 9.69L109.82 9.69Q109.82 7.78 110.73 6.73L110.73 6.73L110.73 6.73Q111.64 5.68 113.26 5.68L113.26 5.68L113.26 5.68Q114.88 5.68 115.79 6.73L115.79 6.73L115.79 6.73Q116.70 7.78 116.70 9.69L116.70 9.69L116.70 11.87L116.70 11.87Q116.70 13.83 115.79 14.85L115.79 14.85L115.79 14.85Q114.88 15.88 113.26 15.88L113.26 15.88L113.26 15.88Q111.64 15.88 110.73 14.85L110.73 14.85L110.73 14.85Q109.82 13.83 109.82 11.87L109.82 11.87ZM113.26 14.78L113.26 14.78L113.26 14.78Q114.39 14.78 114.96 14.01L114.96 14.01L114.96 14.01Q115.53 13.23 115.53 11.79L115.53 11.79L115.53 9.77L115.53 9.77Q115.53 8.43 114.96 7.60L114.96 7.60L114.96 7.60Q114.39 6.78 113.26 6.78L113.26 6.78L113.26 6.78Q112.13 6.78 111.56 7.60L111.56 7.60L111.56 7.60Q110.99 8.43 110.99 9.77L110.99 9.77L110.99 11.79L110.99 11.79Q110.99 13.23 111.56 14.01L111.56 14.01L111.56 14.01Q112.13 14.78 113.26 14.78ZM125.47 5.88L126.64 5.88L126.64 12.38L126.64 12.38Q126.64 13.57 127.20 14.17L127.20 14.17L127.20 14.17Q127.75 14.78 128.83 14.78L128.83 14.78L128.83 14.78Q129.91 14.78 130.46 14.17L130.46 14.17L130.46 14.17Q131.01 13.57 131.01 12.38L131.01 12.38L131.01 5.88L132.19 5.88L132.19 12.38L132.19 12.38Q132.19 14.08 131.29 14.98L131.29 14.98L131.29 14.98Q130.40 15.88 128.83 15.88L128.83 15.88L128.83 15.88Q127.26 15.88 126.36 14.98L126.36 14.98L126.36 14.98Q125.47 14.08 125.47 12.38L125.47 12.38L125.47 5.88ZM147.46 12.15L147.46 15.68L146.29 15.68L146.29 12.40L146.29 12.40Q146.29 12.04 146.12 11.84L146.12 11.84L146.12 11.84Q145.95 11.65 145.53 11.65L145.53 11.65L142.48 11.65L142.48 15.68L141.30 15.68L141.30 5.88L144.80 5.88L144.80 5.88Q145.56 5.88 146.12 6.10L146.12 6.10L146.12 6.10Q146.68 6.31 147.05 6.68L147.05 6.68L147.05 6.68Q147.42 7.04 147.61 7.53L147.61 7.53L147.61 7.53Q147.80 8.01 147.80 8.54L147.80 8.54L147.80 8.96L147.80 8.96Q147.80 9.51 147.50 10.05L147.50 10.05L147.50 10.05Q147.20 10.60 146.57 10.89L146.57 10.89L146.57 11.06L146.57 11.06Q146.99 11.13 147.22 11.40L147.22 11.40L147.22 11.40Q147.46 11.66 147.46 12.15L147.46 12.15ZM142.48 6.97L142.48 10.56L144.66 10.56L144.66 10.56Q145.66 10.56 146.14 10.13L146.14 10.13L146.14 10.13Q146.62 9.70 146.62 8.88L146.62 8.88L146.62 8.62L146.62 8.62Q146.62 7.88 146.14 7.43L146.14 7.43L146.14 7.43Q145.66 6.97 144.66 6.97L144.66 6.97L142.48 6.97ZM175.94 11.65L173.61 11.65L173.61 15.68L172.44 15.68L172.44 5.88L175.94 5.88L175.94 5.88Q176.69 5.88 177.25 6.10L177.25 6.10L177.25 6.10Q177.81 6.31 178.19 6.68L178.19 6.68L178.19 6.68Q178.56 7.04 178.75 7.53L178.75 7.53L178.75 7.53Q178.93 8.01 178.93 8.54L178.93 8.54L178.93 8.96L178.93 8.96Q178.93 9.49 178.75 9.98L178.75 9.98L178.75 9.98Q178.56 10.47 178.18 10.84L178.18 10.84L178.18 10.84Q177.80 11.21 177.24 11.43L177.24 11.43L177.24 11.43Q176.68 11.65 175.94 11.65L175.94 11.65ZM173.61 6.97L173.61 10.56L175.80 10.56L175.80 10.56Q177.76 10.56 177.76 8.88L177.76 8.88L177.76 8.62L177.76 8.62Q177.76 7.88 177.28 7.43L177.28 7.43L177.28 7.43Q176.79 6.97 175.80 6.97L175.80 6.97L173.61 6.97ZM187.84 15.68L187.84 5.88L189.01 5.88L189.01 10.22L193.19 10.22L193.19 5.88L194.36 5.88L194.36 15.68L193.19 15.68L193.19 11.31L189.01 11.31L189.01 15.68L187.84 15.68ZM203.22 11.87L203.22 9.69L203.22 9.69Q203.22 7.78 204.13 6.73L204.13 6.73L204.13 6.73Q205.04 5.68 206.67 5.68L206.67 5.68L206.67 5.68Q208.29 5.68 209.20 6.73L209.20 6.73L209.20 6.73Q210.11 7.78 210.11 9.69L210.11 9.69L210.11 11.87L210.11 11.87Q210.11 13.83 209.20 14.85L209.20 14.85L209.20 14.85Q208.29 15.88 206.67 15.88L206.67 15.88L206.67 15.88Q205.04 15.88 204.13 14.85L204.13 14.85L204.13 14.85Q203.22 13.83 203.22 11.87L203.22 11.87ZM206.67 14.78L206.67 14.78L206.67 14.78Q207.80 14.78 208.37 14.01L208.37 14.01L208.37 14.01Q208.94 13.23 208.94 11.79L208.94 11.79L208.94 9.77L208.94 9.77Q208.94 8.43 208.37 7.60L208.37 7.60L208.37 7.60Q207.80 6.78 206.67 6.78L206.67 6.78L206.67 6.78Q205.53 6.78 204.97 7.60L204.97 7.60L204.97 7.60Q204.40 8.43 204.40 9.77L204.40 9.77L204.40 11.79L204.40 11.79Q204.40 13.23 204.97 14.01L204.97 14.01L204.97 14.01Q205.53 14.78 206.67 14.78ZM218.79 6.97L218.79 5.88L225.68 5.88L225.68 6.97L222.82 6.97L222.82 15.68L221.65 15.68L221.65 6.97L218.79 6.97ZM234.36 11.87L234.36 9.69L234.36 9.69Q234.36 7.78 235.27 6.73L235.27 6.73L235.27 6.73Q236.18 5.68 237.80 5.68L237.80 5.68L237.80 5.68Q239.43 5.68 240.34 6.73L240.34 6.73L240.34 6.73Q241.25 7.78 241.25 9.69L241.25 9.69L241.25 11.87L241.25 11.87Q241.25 13.83 240.34 14.85L240.34 14.85L240.34 14.85Q239.43 15.88 237.80 15.88L237.80 15.88L237.80 15.88Q236.18 15.88 235.27 14.85L235.27 14.85L235.27 14.85Q234.36 13.83 234.36 11.87L234.36 11.87ZM237.80 14.78L237.80 14.78L237.80 14.78Q238.94 14.78 239.51 14.01L239.51 14.01L239.51 14.01Q240.07 13.23 240.07 11.79L240.07 11.79L240.07 9.77L240.07 9.77Q240.07 8.43 239.51 7.60L239.51 7.60L239.51 7.60Q238.94 6.78 237.80 6.78L237.80 6.78L237.80 6.78Q236.67 6.78 236.10 7.60L236.10 7.60L236.10 7.60Q235.54 8.43 235.54 9.77L235.54 9.77L235.54 11.79L235.54 11.79Q235.54 13.23 236.10 14.01L236.10 14.01L236.10 14.01Q236.67 14.78 237.80 14.78Z"></path></g></svg>